<svg xmlns:xlink="http://www.w3.org/1999/xlink" xmlns="http://www.w3.org/2000/svg" class="skr0iyl s1823pp1 sbn1l2g" fill="#000000" style="--sbn1l2g-0:#000000;--s1823pp1-0:16px" width="24"  height="24" ><defs><symbol id="/assets/ic-percent-CTZOXzuQ.svg" xmlns="http://www.w3.org/2000/svg" fill="none" viewBox="0 0 24 24"><g clip-path="url(#a)" fill="none"><path fill="#000" d="M7.8 18.696a.592.592 0 0 1-.344-.11.615.615 0 0 1-.148-.848l8.4-12.174a.595.595 0 0 1 .836-.15.615.615 0 0 1 .147.848l-8.4 12.174a.596.596 0 0 1-.492.26Zm.75-7.609C7.144 11.087 6 9.927 6 8.5v-.913C6 6.16 7.144 5 8.55 5s2.55 1.16 2.55 2.587V8.5c0 1.426-1.144 2.587-2.55 2.587Zm0-4.87c-.744 0-1.35.615-1.35 1.37V8.5c0 .755.606 1.37 1.35 1.37.744 0 1.35-.615 1.35-1.37v-.913c0-.755-.606-1.37-1.35-1.37ZM15.45 19c-1.406 0-2.55-1.16-2.55-2.587V15.5c0-1.427 1.144-2.587 2.55-2.587S18 14.073 18 15.5v.913C18 17.84 16.856 19 15.45 19Zm0-4.87c-.744 0-1.35.615-1.35 1.37v.913c0 .755.606 1.37 1.35 1.37.744 0 1.35-.615 1.35-1.37V15.5c0-.755-.606-1.37-1.35-1.37Z"></path></g><defs><clipPath id="a"><path fill="#fff" d="M0 0h24v24H0z"></path></clipPath></defs></symbol></defs><use xlink:href="#/assets/ic-percent-CTZOXzuQ.svg"></use></svg>