<svg xmlns:xlink="http://www.w3.org/1999/xlink" xmlns="http://www.w3.org/2000/svg" class="s1823pp1 sbn1l2g" fill="#434343" style="--sbn1l2g-0:#434343;--s1823pp1-0:24px" width="24"  height="24" ><defs><symbol id="/assets/ic-question-CAmvdnqa.svg" xmlns="http://www.w3.org/2000/svg" viewBox="0 0 24 24"><path d="M12,4 C16.4015667,4 20,7.59843331 20,12 C20,16.4015667 16.4015667,20 12,20 C7.59843331,20 4,16.4015667 4,12 C4,7.59843331 7.59843331,4 12,4 Z M12,5.37142857 C8.3558524,5.37142857 5.37142857,8.3558524 5.37142857,12 C5.37142857,15.6441476 8.3558524,18.6285714 12,18.6285714 C15.6441476,18.6285714 18.6285714,15.6441476 18.6285714,12 C18.6285714,8.3558524 15.6441476,5.37142857 12,5.37142857 Z M12,14.7428571 C12.5485714,14.7428571 12.9142857,15.1085714 12.9142857,15.6571429 C12.9142857,16.2057143 12.5485714,16.5714286 12,16.5714286 C11.4514286,16.5714286 11.0857143,16.2057143 11.0857143,15.6571429 C11.0857143,15.1085714 11.4514286,14.7428571 12,14.7428571 Z M12,7.42857143 C13.5542857,7.42857143 14.7428571,8.61714286 14.7428571,10.1714286 C14.7428571,11.4514286 13.92,12 13.3714286,12.3657143 C12.952381,12.6171429 12.9174603,12.7149206 12.9145503,12.8703175 L12.9142857,13.5542857 C12.9142857,13.7057695 12.7914838,13.8285714 12.64,13.8285714 L11.36,13.8285714 C11.2085162,13.8285714 11.0857143,13.7057695 11.0857143,13.5542857 L11.0857143,12.9142857 C11.0857143,11.7257143 11.8171429,11.1771429 12.3657143,10.8114286 L12.5804443,10.6777546 C12.8530815,10.4978512 12.9142857,10.3958442 12.9142857,10.1714286 C12.9142857,9.62285714 12.5485714,9.25714286 12,9.25714286 C11.6342857,9.25714286 11.36,9.44 11.1771429,9.71428571 L10.8565262,10.2913956 C10.7934688,10.4048991 10.6617769,10.4561663 10.5420473,10.4221698 L10.477689,10.394607 L10.477689,10.394607 L9.39637917,9.75854237 C9.26807792,9.68307104 9.22338942,9.5190419 9.29567869,9.38892121 L9.62285714,8.8 C10.08,7.97714286 10.9942857,7.42857143 12,7.42857143 Z"></path></symbol></defs><use xlink:href="#/assets/ic-question-CAmvdnqa.svg"></use></svg>