<svg xmlns:xlink="http://www.w3.org/1999/xlink" xmlns="http://www.w3.org/2000/svg" data-testid="filterFlyoutSectionNextIcon" class="s1823pp1 sbn1l2g" fill="#000000" style="--sbn1l2g-0:#000000;--s1823pp1-0:24px" width="24"  height="24" ><defs><symbol id="/assets/ic-user-5oPnXAHF.svg" fill="none" xmlns="http://www.w3.org/2000/svg" viewBox="0 0 24 24"><path d="M16.05 14.374a.493.493 0 0 1 .485-.17C19.072 14.8 21 16.647 21 18.94v.739c0 .264-.18.495-.437.56l-.068.017h-.004l-.001.001-.01.002-.03.008-.111.024c-.097.021-.238.05-.423.086-.37.07-.914.163-1.629.255-1.43.184-3.541.367-6.287.367s-4.857-.183-6.287-.367a27.742 27.742 0 0 1-1.629-.255 15.393 15.393 0 0 1-.423-.086l-.111-.024-.03-.008-.01-.002H3.51l-.002-.001h-.002l-.068-.018A.577.577 0 0 1 3 19.68v-.738c0-2.294 1.927-4.141 4.463-4.737.18-.043.367.03.487.17.288.341.084.956-.346 1.073-1.916.521-3.22 1.933-3.22 3.494 0 .134.096.249.227.273.327.058.762.128 1.301.197 1.368.176 3.411.354 6.088.354s4.72-.178 6.088-.354c.54-.07.974-.14 1.3-.198a.276.276 0 0 0 .227-.272c0-1.561-1.303-2.973-3.22-3.494-.43-.117-.634-.732-.345-1.072ZM15.696 7.515c0-2.365-1.708-4.182-3.696-4.182-1.988 0-3.695 1.817-3.696 4.182 0 1.188.438 2.508 1.152 3.524.72 1.025 1.634 1.628 2.544 1.628.91 0 1.824-.603 2.544-1.628.714-1.016 1.152-2.336 1.152-3.524Zm1.304 0c0 1.489-.536 3.078-1.396 4.302C14.75 13.032 13.49 14 12 14c-1.49 0-2.75-.968-3.604-2.183C7.536 10.593 7 9.004 7 7.515 7 4.525 9.187 2 12 2s5 2.525 5 5.515Z" fill="#000"></path></symbol></defs><use xlink:href="#/assets/ic-user-5oPnXAHF.svg"></use></svg>