<svg xmlns:xlink="http://www.w3.org/1999/xlink" xmlns="http://www.w3.org/2000/svg" class="s1823pp1 sbn1l2g" fill="#000000" style="--sbn1l2g-0: #000000; --s1823pp1-0: 24px;" width="13"  height="16" ><defs><symbol id="https://assets.aboutstatic.com/assets/ic-bell-plus-xGIGI_0a.svg" xmlns="http://www.w3.org/2000/svg" viewBox="0 0 13 16"><path xmlns="http://www.w3.org/2000/svg" fill-rule="evenodd" d="M6.244 2.744a.833.833 0 0 1 1.423.59.5.5 0 0 0 .286.451 4.17 4.17 0 0 1 2.38 3.56v1.988q0 .03.004.06a3.2 3.2 0 0 0 .553 1.44H2.777l.044-.064c.275-.412.45-.883.509-1.376l.003-.06V7.345A4.17 4.17 0 0 1 5.704 3.79.5.5 0 0 0 6 3.325a.83.83 0 0 1 .244-.58m-1.91 9.09H1.5a.5.5 0 0 1-.246-.936 2.17 2.17 0 0 0 1.08-1.596V7.31a5.17 5.17 0 0 1 2.694-4.298 1.833 1.833 0 0 1 3.61 0 5.17 5.17 0 0 1 2.695 4.321v1.969a2.17 2.17 0 0 0 1.08 1.596.5.5 0 0 1-.246.935H9.333V12a2.5 2.5 0 0 1-5 0zm4 0V12a1.5 1.5 0 0 1-3 0v-.167z" clip-rule="evenodd"></path></symbol></defs><use xlink:href="#https://assets.aboutstatic.com/assets/ic-bell-plus-xGIGI_0a.svg"></use></svg>