<svg xmlns:xlink="http://www.w3.org/1999/xlink" xmlns="http://www.w3.org/2000/svg" data-testid="filterFlyoutSectionNextIcon" class="s1823pp1 sbn1l2g" fill="#000000" style="--sbn1l2g-0:#000000;--s1823pp1-0:24px" width="24"  height="24" ><defs><symbol id="/assets/ic-nav-header-basket-BmMdYEOt.svg" fill="none" xmlns="http://www.w3.org/2000/svg" viewBox="0 0 24 24"><path fill-rule="evenodd" clip-rule="evenodd" d="M12.188 2.255a3.76 3.76 0 0 1 3.562 3.743V8h1.943l.093.004c.462.043.84.402.9.871l1.301 10.299c.029.228.008.46-.06.68l-.061.163a1.622 1.622 0 0 1-.277.433l-.123.123a1.643 1.643 0 0 1-.434.283l-.163.063a1.66 1.66 0 0 1-.513.081H5.643a1.66 1.66 0 0 1-.512-.081l-.163-.063a1.647 1.647 0 0 1-.834-.84l-.061-.161a1.609 1.609 0 0 1-.073-.51l.012-.171L5.314 8.875c.063-.5.489-.875.992-.875H8.25V5.998l.005-.186a3.76 3.76 0 0 1 3.743-3.562h.004l.186.005ZM5.501 19.36a.109.109 0 0 0 .029.09c.012.014.03.026.049.035a.16.16 0 0 0 .064.014h12.713a.16.16 0 0 0 .065-.014.146.146 0 0 0 .049-.035.109.109 0 0 0 .03-.09L17.252 9.5H6.747L5.5 19.361ZM12 3.75a2.26 2.26 0 0 0-2.25 2.252V8h4.5V6.002A2.26 2.26 0 0 0 12 3.75Z" fill="#000"></path></symbol></defs><use xlink:href="#/assets/ic-nav-header-basket-BmMdYEOt.svg"></use></svg>