<svg xmlns:xlink="http://www.w3.org/1999/xlink" xmlns="http://www.w3.org/2000/svg" data-testid="filterFlyoutSectionNextIcon" class="s1823pp1 sbn1l2g" fill="#000000" style="--sbn1l2g-0:#000000;--s1823pp1-0:24px" width="28"  height="28" ><defs><symbol id="/assets/ic-coupon-dn4EsFwj.svg" viewBox="0 0 28 28" xmlns="http://www.w3.org/2000/svg"><path fill-rule="evenodd" clip-rule="evenodd" d="M23.917 7c0-.35-.234-.583-.584-.583H11.9c-.583.7-1.633 1.166-2.567 1.166-.933 0-1.866-.466-2.566-1.166h-2.1c-.35 0-.584.233-.584.583v14c0 .35.234.583.584.583h2.216c.584-.7 1.634-1.166 2.567-1.166.933 0 1.867.466 2.567 1.166h11.316c.35 0 .584-.233.584-.583V7ZM11.083 4.667h12.25A2.34 2.34 0 0 1 25.667 7v14a2.34 2.34 0 0 1-2.334 2.333h-12.25c-.233-.7-.933-1.166-1.633-1.166s-1.4.466-1.633 1.166h-3.15A2.34 2.34 0 0 1 2.333 21V7a2.34 2.34 0 0 1 2.334-2.333h3.15c.233.7.933 1.166 1.633 1.166s1.4-.466 1.633-1.166Zm.467 4.666c.933 0 1.633.7 1.633 1.634 0 .933-.816 1.633-1.633 1.633-.933 0-1.633-.7-1.633-1.633 0-.934.7-1.634 1.633-1.634Zm4.083 7.7c0-.933.7-1.633 1.634-1.633.933 0 1.633.7 1.633 1.633 0 .934-.7 1.634-1.633 1.634-.934 0-1.634-.7-1.634-1.634Zm2.334-6.766-1.05-.817c-.117-.117-.35-.117-.467.117l-5.717 7.7c-.116.116-.116.35.117.466l1.05.817c.117.117.35.117.467-.117l5.716-7.7c.117-.116.117-.35-.116-.466Z"></path></symbol></defs><use xlink:href="#/assets/ic-coupon-dn4EsFwj.svg"></use></svg>