<svg xmlns:xlink="http://www.w3.org/1999/xlink" xmlns="http://www.w3.org/2000/svg" class="s1823pp1 sbn1l2g" fill="#000000" style="--sbn1l2g-0: #000000; --s1823pp1-0: 32px;" width="24"  height="24" ><defs><symbol id="https://assets.aboutstatic.com/assets/ic-heart-cL9c49cq.svg" xmlns="http://www.w3.org/2000/svg" viewBox="0 0 24 24"><path xmlns="http://www.w3.org/2000/svg" d="M14.3 2.66c1.2-.66 2.623-.93 4.003-.313 3.083 1.37 4.444 5.02 3.29 8.288l-.004.01c-.744 2.025-2.043 3.803-3.256 5.158a23.66 23.66 0 0 1-2.922 2.753l-.004.003-2.959 2.285a.735.735 0 0 1-.906 0l-2.96-2.285-.003-.003a23.66 23.66 0 0 1-2.923-2.753C4.443 14.448 3.144 12.67 2.4 10.645l-.004-.01c-1.16-3.284.314-6.919 3.281-8.285l.007-.003C7.064 1.729 8.49 2 9.69 2.66c.874.48 1.665 1.182 2.305 1.972.64-.79 1.43-1.493 2.304-1.972Zm3.406 1.187c-.84-.375-1.773-.25-2.699.258-.93.51-1.784 1.377-2.37 2.32a.76.76 0 0 1-.643.368.76.76 0 0 1-.643-.368c-.585-.943-1.439-1.81-2.37-2.32-.925-.508-1.859-.633-2.698-.258-2.204 1.02-3.316 3.735-2.449 6.208l.127.326c.66 1.622 1.74 3.104 2.812 4.302a22.078 22.078 0 0 0 2.715 2.56l2.507 1.935 2.506-1.935c.485-.38 1.579-1.291 2.715-2.56 1.142-1.275 2.292-2.872 2.935-4.618.881-2.495-.163-5.204-2.443-6.218h-.002Z"></path></symbol></defs><use xlink:href="#https://assets.aboutstatic.com/assets/ic-heart-cL9c49cq.svg"></use></svg>